<svg width="405" height="103" viewBox="0 0 405 103" fill="none" xmlns="http://www.w3.org/2000/svg">
<g clip-path="url(#clip0_196_942)">
<path d="M108.11 46.03C105.43 42.49 100.83 41.59 97.15 43.3C97.04 43.15 96.93 43 96.79 42.86L54.13 0.370041C53.33 -0.429959 51.96 0.140041 51.96 1.27004V44.19L31.14 23.37C30.34 22.57 28.96 23.14 28.96 24.27V67.18L17.4 55.62C17.28 55.5 17.14 55.4 17.01 55.3C18.64 51.94 18.05 47.76 15.23 45C11.88 41.71 6.40003 41.6 2.93003 44.76C-0.879967 48.22 -0.979967 54.14 2.61003 57.74C4.36003 59.49 6.65003 60.36 8.95003 60.36C10.29 60.36 11.62 60.05 12.85 59.46C12.95 59.6 13.05 59.73 13.17 59.85L55.75 102.43C56.55 103.23 57.93 102.66 57.93 101.53V58.62L78.75 79.44C79.55 80.24 80.93 79.67 80.93 78.54V35.57L92.59 47.1C92.7 47.21 92.82 47.29 92.94 47.38C91.26 50.74 91.81 54.94 94.61 57.74C96.36 59.49 98.65 60.36 100.95 60.36C103.61 60.36 106.26 59.19 108.07 56.85C110.5 53.7 110.53 49.2 108.12 46.02L108.11 46.03ZM11.07 53.52C9.91003 54.69 8.01003 54.69 6.84003 53.52C5.67003 52.36 5.67003 50.46 6.84003 49.29C7.42003 48.71 8.19003 48.42 8.95003 48.42C9.71003 48.42 10.48 48.71 11.06 49.29C12.23 50.45 12.23 52.35 11.06 53.52H11.07ZM72.64 64.88L61.07 53.31C60.02 52.26 60.02 50.56 61.07 49.52L73.13 37.46C73.8 36.79 74.96 37.26 74.96 38.22V63.93C74.96 65.14 73.5 65.74 72.65 64.89L72.64 64.88ZM57.94 41.61V15.91C57.94 14.7 59.4 14.1 60.25 14.95L71.84 26.54C72.88 27.58 72.88 29.25 71.84 30.29L59.76 42.37C59.09 43.04 57.93 42.57 57.93 41.61H57.94ZM37.25 37.94L48.82 49.51C49.87 50.56 49.87 52.26 48.82 53.3L36.76 65.36C36.09 66.03 34.93 65.56 34.93 64.6V38.89C34.93 37.68 36.39 37.08 37.24 37.93L37.25 37.94ZM49.65 87.88L38.06 76.29C37.02 75.25 37.02 73.58 38.06 72.54L50.14 60.46C50.81 59.79 51.97 60.26 51.97 61.22V86.93C51.97 88.14 50.51 88.74 49.66 87.89L49.65 87.88ZM103.05 53.52C101.89 54.69 99.99 54.69 98.82 53.52C97.65 52.36 97.65 50.46 98.82 49.29C99.4 48.71 100.17 48.42 100.93 48.42C101.69 48.42 102.46 48.71 103.04 49.29C104.21 50.45 104.21 52.35 103.04 53.52H103.05Z" fill="#A4AAB2"/>
<path d="M195.23 72.9299H191.07C190.29 72.9299 189.65 72.2899 189.65 71.5099V38.9799C189.65 37.5499 187.92 36.8299 186.9 37.8399L173.71 51.0299C172.63 52.1099 170.88 52.1099 169.8 51.0299L156.61 37.8399C155.6 36.8299 153.86 37.5399 153.86 38.9799V71.5099C153.86 72.2899 153.22 72.9299 152.44 72.9299H148.28C147.5 72.9299 146.86 72.2899 146.86 71.5099V26.5799C146.86 23.4799 150.61 21.9299 152.8 24.1199L170.42 41.7399C171.16 42.4799 172.35 42.4799 173.09 41.7399L190.71 24.1199C192.9 21.9299 196.65 23.4799 196.65 26.5799V71.4999C196.65 72.2799 196.01 72.9199 195.23 72.9199V72.9299Z" fill="#A4AAB2"/>
<path d="M244.82 72.93H221.35C220.57 72.93 219.93 72.29 219.93 71.51V24.56C219.93 23.78 220.57 23.14 221.35 23.14H244.82C245.75 23.14 246.65 23.51 247.3 24.17L268.33 45.2C269.89 46.76 269.89 49.3 268.33 50.87L247.3 71.9C246.64 72.56 245.75 72.93 244.82 72.93ZM228.99 65.93H242.52C243.07 65.93 243.59 65.71 243.98 65.33L259.28 50.03C260.38 48.93 260.38 47.14 259.28 46.04L243.98 30.74C243.59 30.35 243.07 30.14 242.52 30.14H228.99C227.85 30.14 226.93 31.06 226.93 32.2V63.87C226.93 65.01 227.85 65.93 228.99 65.93Z" fill="#A4AAB2"/>
<path d="M334.94 68.13L316.41 49.6C315.55 48.74 315.55 47.34 316.41 46.48L333.81 29.08C336 26.89 334.45 23.14 331.35 23.14H287.99C286.34 23.14 285 24.48 285 26.13V71.52C285 72.31 285.64 72.94 286.42 72.94H290.58C291.36 72.94 292 72.3 292 71.52V52.83C292 52.12 292.57 51.55 293.28 51.55H306.83C307.87 51.55 308.86 51.96 309.59 52.69L329.99 73.09C330.71 73.81 331.87 73.81 332.59 73.09L334.94 70.74C335.66 70.02 335.66 68.86 334.94 68.14V68.13ZM292 31.52C292 30.76 292.62 30.14 293.38 30.14H318.95C320.38 30.14 321.1 31.87 320.09 32.89L309.83 43.15C308.94 44.04 307.73 44.54 306.47 44.54H293.54C292.69 44.54 292 43.85 292 43V31.53V31.52Z" fill="#A4AAB2"/>
<path d="M398.92 71.9399L364.81 37.8299C363.8 36.8199 362.06 37.5299 362.06 38.9699V71.4999C362.06 72.2799 361.42 72.9199 360.64 72.9199H356.48C355.7 72.9199 355.06 72.2799 355.06 71.4999V26.5799C355.06 23.4799 358.81 21.9299 361 24.1199L395.11 58.2299C396.12 59.2399 397.86 58.5299 397.86 57.0899V24.5599C397.86 23.7799 398.5 23.1399 399.28 23.1399H403.44C404.22 23.1399 404.86 23.7799 404.86 24.5599V69.4799C404.86 72.5799 401.11 74.1299 398.92 71.9399Z" fill="#A4AAB2"/>
</g>
<defs>
<clipPath id="clip0_196_942">
<rect width="404.86" height="102.82" fill="white"/>
</clipPath>
</defs>
</svg>
